<svg width="32" height="32" viewBox="0 0 32 32" fill="none" xmlns="http://www.w3.org/2000/svg">
<path d="M22.9414 13.6185C22.7909 12.0248 22.9414 10.2623 22.5086 8.74363C21.6996 5.8937 18.708 4 15.7917 4C12.9319 4 10.2978 5.81871 9.20651 8.51864C8.98074 9.17487 9.056 10.4123 9.43229 10.6373C10.5236 11.3686 10.8246 10.4123 11.2573 9.47486C11.6901 8.0874 12.8002 7.07492 14.0984 6.56869C15.4154 6.06245 16.9394 6.21245 18.1812 6.86868C19.423 7.52491 20.3073 8.68738 20.6648 10.0749C20.9658 11.3873 20.74 12.8498 19.931 14.0123C18.2565 16.5622 15.1144 16.9184 12.5556 15.0247C11.4643 14.1435 10.2978 13.4873 9.056 12.981C7.23095 12.4748 5.33065 12.681 3.65612 13.5623C2.05686 14.406 0.890335 15.9435 0.363518 17.6872C-0.878264 21.3996 1.17256 25.337 4.82265 26.5744C8.47273 27.8869 12.4991 26.0682 13.8162 22.4308C14.0419 21.8496 13.9667 20.7621 13.5904 20.4621C12.3486 19.5809 12.1981 20.6871 11.8406 21.5496C11.4079 22.937 10.2978 24.0245 8.99955 24.5307C7.60725 25.037 6.1585 24.887 4.91672 24.1745C3.59968 23.5933 2.71538 22.4308 2.3579 21.0433C2.00041 19.7309 2.28264 18.2684 3.01642 17.1059C4.7662 14.556 7.90829 14.1247 10.4671 16.0935C15.4342 19.8059 19.2348 19.0746 22.6027 13.8435C22.6592 13.6748 22.8661 13.6748 22.9414 13.6185ZM22.9414 13.6185C23.2989 14.4247 24.1079 14.931 24.9169 14.781C27.3252 14.781 29.3761 16.5247 29.7336 18.8496C30.091 21.0246 28.9998 23.2183 27.0242 24.1558C24.9734 25.0932 22.6403 24.662 21.0975 23.0683C20.74 22.712 20.2132 22.412 19.7805 22.1871C19.3477 23.0683 18.614 23.7245 19.7052 24.737C21.756 26.7807 24.8229 27.3619 27.5322 26.3307C30.3168 25.1682 32.1419 22.3933 31.9913 19.3371C31.8596 16.3747 29.8088 13.7498 26.9678 12.8873C25.5755 12.306 23.9762 12.5873 22.9414 13.6185Z" fill="#F89900"/>
</svg>
